<svg width="34" height="29" viewBox="0 0 34 29" fill="none" xmlns="http://www.w3.org/2000/svg">
<path d="M1.77591 0.00959749C1.22356 0.109953 0.728941 0.455361 0.400863 0.969835C0.0727857 1.48431 -0.0618775 2.12571 0.0264981 2.75293C0.114874 3.38015 0.419049 3.94182 0.872109 4.31437C1.32517 4.68692 1.89 4.83983 2.44235 4.73948H8.69024L9.06511 5.92195L10.7729 11.8343L12.4806 17.7467C12.6472 18.3615 13.3553 18.9291 13.8968 18.9291H28.4752C29.0583 18.9291 29.7248 18.3615 29.8914 17.7467L33.2653 5.92195C33.4319 5.30707 33.182 4.73948 32.5988 4.73948H14.1051L12.5223 1.33396C12.3537 0.943084 12.0934 0.612613 11.77 0.378942C11.4467 0.145272 11.0728 0.0174657 10.6896 0.00959748L2.35904 0.00959749C2.23434 -0.00319916 2.10887 -0.00319916 1.98417 0.00959748C1.90094 0.00391651 1.81748 0.00391651 1.73425 0.00959748L1.77591 0.00959749ZM14.9381 23.659C13.7719 23.659 12.8555 24.6996 12.8555 26.0239C12.8555 27.3483 13.7719 28.3889 14.9381 28.3889C16.1044 28.3889 17.0208 27.3483 17.0208 26.0239C17.0208 24.6996 16.1044 23.659 14.9381 23.659ZM27.4339 23.659C26.2676 23.659 25.3513 24.6996 25.3513 26.0239C25.3513 27.3483 26.2676 28.3889 27.4339 28.3889C28.6002 28.3889 29.5165 27.3483 29.5165 26.0239C29.5165 24.6996 28.6002 23.659 27.4339 23.659Z" fill="white"/>
</svg>
