<svg width="125" height="25" viewBox="0 0 125 25" fill="none" xmlns="http://www.w3.org/2000/svg">
<path d="M5.85 12.97C5.205 12.97 4.89 12.805 4.89 12.4C4.89 11.8 5.25 11.575 6.09 11.575H13.05L15.51 8.965H6.795C3.285 8.965 1.89 10.51 1.89 12.55C1.89 14.005 2.91 14.965 5.19 14.965H10.665C11.295 14.965 11.61 15.16 11.61 15.565C11.61 16.15 11.25 16.42 10.41 16.42H2.805L0.36 19H9.705C13.275 19 14.64 17.425 14.64 15.25C14.64 13.75 13.485 12.97 11.31 12.97H5.85ZM30.5563 19L25.8913 9.925C25.5613 9.295 25.0363 8.8 24.1063 8.8C23.1313 8.8 22.4263 9.34 21.9013 9.925L13.8613 19H17.5363L23.4163 12.34L24.7513 14.995C24.9913 15.475 25.3063 16.09 25.5163 16.45C25.0363 16.42 24.3463 16.42 23.7313 16.42H21.2263L18.8863 19H30.5563ZM29.3426 8.965L34.0076 18.04C34.3376 18.67 34.8626 19.165 35.7926 19.165C36.7676 19.165 37.4726 18.625 37.9976 18.04L46.0376 8.965H42.3626L36.4826 15.625L33.1376 8.965H29.3426ZM57.4069 19L52.7419 9.925C52.4119 9.295 51.8869 8.8 50.9569 8.8C49.9819 8.8 49.2769 9.34 48.7519 9.925L40.7119 19H44.3869L50.2669 12.34L51.6019 14.995C51.8419 15.475 52.1569 16.09 52.3669 16.45C51.8869 16.42 51.1969 16.42 50.5819 16.42H48.0769L45.7369 19H57.4069ZM68.6534 19.165C69.5534 19.165 70.4384 18.61 70.6784 17.275L72.1634 8.965H69.3434L68.2934 14.86L63.1184 9.34C62.7134 8.89 62.3384 8.8 61.9634 8.8C61.0334 8.8 60.1484 9.34 59.9234 10.675L58.4684 19H61.2884L62.3234 13.105L67.4984 18.625C67.9184 19.075 68.2334 19.165 68.6534 19.165ZM75.0743 8.965L72.5843 11.575H77.2943L75.9893 19H79.0943L80.4143 11.575H83.9843L86.4743 8.965H75.0743Z" fill="white"/>
<path d="M100.272 22V9.136C100.272 7.648 99.888 6.808 99.336 6.28C98.688 5.656 97.8 5.416 96.96 5.416C96.168 5.416 95.52 5.632 94.704 6.232L83.16 14.68C82.56 15.112 82.296 15.376 82.08 15.664C81.696 16.168 81.576 16.672 81.576 17.152C81.576 17.848 81.768 18.472 82.176 18.928C82.632 19.432 83.352 19.744 84.6 19.744H95.904V22H100.272ZM95.904 15.952H88.488C88.32 15.952 88.224 15.832 88.224 15.688C88.224 15.568 88.272 15.496 88.392 15.424L95.16 10.6C95.328 10.48 95.4 10.456 95.544 10.456C95.712 10.456 95.904 10.624 95.904 10.936V15.952ZM102.182 10.072H113.414C114.134 10.072 114.518 10.336 114.518 10.96C114.518 11.416 114.254 11.704 113.702 11.92L104.222 15.712C102.326 16.48 101.846 17.728 101.846 18.832C101.846 20.392 102.926 22 105.47 22H119.342V17.848H109.07C108.926 17.848 108.806 17.752 108.806 17.608C108.806 17.512 108.878 17.416 108.998 17.368L116.318 14.704C118.406 13.936 119.534 12.232 119.534 10.384C119.534 7.744 117.638 5.776 114.422 5.776H102.182V10.072Z" fill="#0180DC"/>
</svg>
