<svg width="395" height="71" viewBox="0 0 395 71" fill="none" xmlns="http://www.w3.org/2000/svg">
<path d="M315.392 61V26.696C315.392 22.728 314.368 20.488 312.896 19.08C311.168 17.416 308.8 16.776 306.56 16.776C304.448 16.776 302.72 17.352 300.544 18.952L269.76 41.48C268.16 42.632 267.456 43.336 266.88 44.104C265.856 45.448 265.536 46.792 265.536 48.072C265.536 49.928 266.048 51.592 267.136 52.808C268.352 54.152 270.272 54.984 273.6 54.984H303.744V61H315.392ZM303.744 44.872H283.968C283.52 44.872 283.264 44.552 283.264 44.168C283.264 43.848 283.392 43.656 283.712 43.464L301.76 30.6C302.208 30.28 302.4 30.216 302.784 30.216C303.232 30.216 303.744 30.664 303.744 31.496V44.872ZM320.486 29.192H350.438C352.358 29.192 353.382 29.896 353.382 31.56C353.382 32.776 352.678 33.544 351.206 34.12L325.926 44.232C320.87 46.28 319.59 49.608 319.59 52.552C319.59 56.712 322.47 61 329.254 61H366.246V49.928H338.854C338.47 49.928 338.15 49.672 338.15 49.288C338.15 49.032 338.342 48.776 338.662 48.648L358.182 41.544C363.75 39.496 366.758 34.952 366.758 30.024C366.758 22.984 361.702 17.736 353.126 17.736H320.486V29.192Z" fill="#262829"/>
<path d="M18.72 35.704C16.656 35.704 15.648 35.176 15.648 33.88C15.648 31.96 16.8 31.24 19.488 31.24H41.76L49.632 22.888H21.744C10.512 22.888 6.048 27.832 6.048 34.36C6.048 39.016 9.312 42.088 16.608 42.088H34.128C36.144 42.088 37.152 42.712 37.152 44.008C37.152 45.88 36 46.744 33.312 46.744H8.976L1.152 55H31.056C42.48 55 46.848 49.96 46.848 43C46.848 38.2 43.152 35.704 36.192 35.704H18.72ZM97.7801 55L82.8521 25.96C81.7961 23.944 80.1161 22.36 77.1401 22.36C74.0201 22.36 71.7641 24.088 70.0841 25.96L44.3561 55H56.1161L74.9321 33.688L79.2041 42.184C79.9721 43.72 80.9801 45.688 81.6521 46.84C80.1161 46.744 77.9081 46.744 75.9401 46.744H67.9241L60.4361 55H97.7801ZM93.8963 22.888L108.824 51.928C109.88 53.944 111.56 55.528 114.536 55.528C117.656 55.528 119.912 53.8 121.592 51.928L147.32 22.888H135.56L116.744 44.2L106.04 22.888H93.8963ZM183.702 55L168.774 25.96C167.718 23.944 166.038 22.36 163.062 22.36C159.942 22.36 157.686 24.088 156.006 25.96L130.278 55H142.038L160.854 33.688L165.126 42.184C165.894 43.72 166.902 45.688 167.574 46.84C166.038 46.744 163.83 46.744 161.862 46.744H153.846L146.358 55H183.702ZM219.691 55.528C222.571 55.528 225.403 53.752 226.171 49.48L230.923 22.888H221.899L218.539 41.752L201.979 24.088C200.683 22.648 199.483 22.36 198.283 22.36C195.307 22.36 192.475 24.088 191.755 28.36L187.099 55H196.123L199.435 36.136L215.995 53.8C217.339 55.24 218.347 55.528 219.691 55.528ZM240.238 22.888L232.27 31.24H247.342L243.166 55H253.102L257.326 31.24H268.75L276.718 22.888H240.238Z" fill="#262829"/>
</svg>
