<svg width="32" height="24" viewBox="0 0 32 24" fill="none" xmlns="http://www.w3.org/2000/svg">
<path d="M13.616 0.0288974C6.10776 0.0288974 0 4.56578 0 10.143C0 15.7202 6.10776 20.2571 13.616 20.2571C15.9113 20.2571 18.1677 19.8525 20.0739 19.0723C20.2266 19.2088 20.3959 19.3345 20.5797 19.4479L24.47 22.3377C24.8292 22.6379 25.2672 22.8804 25.7572 23.0504C26.2472 23.2203 26.7787 23.3141 27.3193 23.3259C27.8598 23.3377 28.3979 23.2674 28.9004 23.1191C29.403 22.9709 29.8595 22.7479 30.2419 22.4639C30.6243 22.1798 30.9245 21.8408 31.124 21.4674C31.3236 21.0941 31.4183 20.6944 31.4024 20.2929C31.3865 19.8914 31.2603 19.4966 31.0315 19.1326C30.8027 18.7687 30.4762 18.4433 30.072 18.1764L26.1817 15.2867C25.9922 15.1459 25.7836 15.02 25.5592 14.911C26.6096 13.4951 27.271 11.8479 27.271 10.1141C27.271 4.53689 21.1632 0 13.6549 0L13.616 0.0288974ZM13.616 2.91863C19.0235 2.91863 23.3418 6.12624 23.3418 10.143C23.3418 12.0502 22.4081 13.8129 20.7742 15.1133C20.7353 15.1422 20.6964 15.1711 20.6575 15.2C20.4737 15.3134 20.3044 15.4392 20.1517 15.5757C18.44 16.7316 16.1058 17.3962 13.5771 17.3962C8.16962 17.3962 3.85139 14.1886 3.85139 10.1719C3.85139 6.15514 8.16962 2.94753 13.5771 2.94753L13.616 2.91863Z" fill="#0180DC"/>
</svg>
